<?xml version="1.0" encoding="utf-8"?>
<!-- Svg Vector Icons : http://www.onlinewebfonts.com/icon -->
<!DOCTYPE svg PUBLIC "-//W3C//DTD SVG 1.1//EN" "http://www.w3.org/Graphics/SVG/1.1/DTD/svg11.dtd">
<svg version="1.1" xmlns="http://www.w3.org/2000/svg" xmlns:xlink="http://www.w3.org/1999/xlink" x="0px" y="0px" viewBox="0 0 256 256" enable-background="new 0 0 256 256" xml:space="preserve">
<metadata> Svg Vector Icons : http://www.onlinewebfonts.com/icon </metadata>
<g><g><g><path fill="#000000" d="M246,113.3v29.5h-16.1c-2.1,14.8-7.2,28.4-15.2,41c-8,12.6-18.3,22.9-30.9,30.9c-12.6,8-26.3,13.1-41,15.2V246h-29.5v-16.1c-22.4-3.1-41.8-12.8-58.1-29c-16.3-16.3-26-35.6-29-58.1H10v-29.5h16.1c3.1-22.4,12.8-41.8,29-58.1c16.3-16.3,35.6-26,58.1-29V10h29.5v16.1c22.4,3.1,41.8,12.8,58.1,29c16.3,16.3,25.9,35.7,29,58.1H246z M142.8,207.7c16.6-3.1,30.8-10.5,42.6-22.3c11.8-11.8,19.3-26,22.3-42.6h-35.5v-29.5h35.5c-3.1-16.6-10.5-30.8-22.3-42.6s-26-19.3-42.6-22.3v35.5h-29.5V48.3c-16.6,3.1-30.8,10.5-42.6,22.3s-19.3,26.1-22.3,42.6h35.5v29.5H48.3c3.1,16.6,10.5,30.8,22.3,42.6c11.8,11.8,26,19.3,42.6,22.3v-35.5h29.5V207.7L142.8,207.7z"/></g></g></g>
</svg>