<?xml version="1.0" encoding="utf-8"?>
<!-- Svg Vector Icons : http://www.onlinewebfonts.com/icon -->
<!DOCTYPE svg PUBLIC "-//W3C//DTD SVG 1.1//EN" "http://www.w3.org/Graphics/SVG/1.1/DTD/svg11.dtd">
<svg version="1.1" xmlns="http://www.w3.org/2000/svg" xmlns:xlink="http://www.w3.org/1999/xlink" x="0px" y="0px" viewBox="0 0 256 256" enable-background="new 0 0 256 256" xml:space="preserve">
<metadata> Svg Vector Icons : http://www.onlinewebfonts.com/icon </metadata>
<g><g><g><path fill="#000000" d="M199.9,35.1c-2.8,6.3-5.3,11.4-5.6,11.4c-0.3,0-2.5-0.8-5-1.8c-9-3.5-20-6.2-31.1-7.6c-5.2-0.7-9.4-0.8-18.3-0.7c-13.1,0.3-18.8,1-30.3,4c-9.9,2.5-15.9,4.7-25.8,9.6c-40.2,19.7-67.4,58.2-73,103.1c-1,8-1,23.2,0,31.2c1.7,13.6,5.5,27.3,11.1,39.7c2.6,5.7,5,9.9,4.2,7.5c-0.2-0.5-0.6-3.5-0.9-6.8c-1.7-16.8,1.7-34.6,9.7-50.4c4.3-8.3,8.8-14.8,15.1-21.4c14.4-15.1,31.2-24,52.8-27.9c5.1-0.9,23.3-0.9,28.4,0c8,1.4,21.6,5.6,24.7,7.7c0.5,0.3-0.4,2.7-3.9,10.7c-2.5,5.7-4.5,10.4-4.5,10.5c0.2,0.2,98.1-33.5,98.5-33.9c0.3-0.2-40.5-95.6-41-96.1C204.9,23.7,202.6,28.8,199.9,35.1z"/></g></g></g>
</svg>